<?xml version="1.0" encoding="iso-8859-1"?>
<!-- Uploaded to: SVG Repo, www.svgrepo.com, Generator: SVG Repo Mixer Tools -->
<svg fill="white" version="1.1" id="Layer_1" xmlns="http://www.w3.org/2000/svg" xmlns:xlink="http://www.w3.org/1999/xlink" 
	 viewBox="0 0 512 512" xml:space="preserve">
<g>
	<g>
		<path d="M224.48,193.065h-31.521c-6.577,0-11.927-5.351-11.927-11.927c0-15.15-12.324-27.474-27.474-27.474H27.474
			C12.324,153.664,0,165.989,0,181.138v31.521c0,15.15,12.324,27.474,27.474,27.474h39.401c6.576-0.001,11.927,5.35,11.927,11.926
			v7.881c0,15.149,12.325,27.474,27.474,27.474h44.773c3.218,9.167,11.955,15.761,22.209,15.761s18.991-6.593,22.209-15.761h29.013
			c15.149,0,27.474-12.325,27.474-27.474v-39.401C251.954,205.391,239.628,193.065,224.48,193.065z M173.258,287.628
			c-4.404,0-7.987-3.583-7.987-7.988c0-4.404,3.583-7.988,7.987-7.988s7.987,3.583,7.987,7.988
			C181.245,284.045,177.662,287.628,173.258,287.628z M236.407,259.941c0,6.576-5.351,11.927-11.927,11.927h-29.013
			c-3.218-9.167-11.955-15.761-22.209-15.761c-10.252,0-18.99,6.593-22.209,15.761h-44.773c-6.576,0-11.927-5.351-11.927-11.927
			v-7.881c0-15.149-12.324-27.474-27.474-27.474H27.474c-6.576,0-11.927-5.35-11.927-11.926v-11.59h23.32v-15.547h-23.32v-4.384
			c0-6.577,5.351-11.927,11.927-11.927h126.084c6.576,0,11.927,5.351,11.927,11.927c0,15.15,12.325,27.474,27.474,27.474h31.521
			c6.576,0,11.927,5.351,11.927,11.927V259.941z"/>
	</g>
</g>
<g>
	<g>
		<path d="M397.844,82.742h-5.372c-3.218-9.167-11.955-15.761-22.209-15.761s-18.991,6.593-22.209,15.761h-21.132
			c-6.577,0-11.927-5.351-11.927-11.927c0-15.15-12.324-27.474-27.474-27.474H161.438c-15.15,0-27.474,12.324-27.474,27.474v31.521
			c0,15.15,12.324,27.474,27.474,27.474h5.373c3.218,9.167,11.955,15.76,22.209,15.76c10.161,0,18.837-6.473,22.124-15.511
			c5.419,1.124,9.503,5.933,9.503,11.679v7.88c0,15.15,12.325,27.474,27.474,27.474h29.013c3.218,9.167,11.955,15.76,22.208,15.76
			c10.253,0,18.991-6.593,22.209-15.76h76.294c15.15,0,27.474-12.325,27.474-27.474v-39.401
			C425.318,95.067,412.992,82.742,397.844,82.742z M370.263,82.528c4.404,0,7.987,3.583,7.987,7.988
			c0,4.404-3.583,7.987-7.987,7.987c-4.405,0-7.988-3.583-7.988-7.987C362.276,86.111,365.859,82.528,370.263,82.528z
			 M189.018,130.023c-4.404,0-7.987-3.583-7.987-7.987c0-4.404,3.583-7.987,7.987-7.987c4.405,0,7.988,3.583,7.988,7.987
			C197.006,126.44,193.423,130.023,189.018,130.023z M299.341,177.304c-4.404,0-7.987-3.583-7.987-7.987s3.583-7.987,7.987-7.987
			s7.987,3.583,7.987,7.987C307.328,173.721,303.746,177.304,299.341,177.304z M409.77,149.617c0,6.577-5.351,11.927-11.927,11.927
			h-76.294c-3.218-9.167-11.955-15.76-22.209-15.76c-10.252,0-18.991,6.593-22.209,15.76h-29.013
			c-6.577,0-11.927-5.351-11.927-11.927v-7.88c0-14.289-10.967-26.06-24.924-27.352c-3.183-9.232-11.951-15.883-22.25-15.883
			c-10.253,0-18.991,6.593-22.209,15.76h-5.372c-6.576,0-11.927-5.351-11.927-11.927V90.17h24.095V74.623H149.51v-3.809
			c0-6.576,5.351-11.927,11.927-11.927h126.084c6.576,0,11.927,5.351,11.927,11.927c0,15.15,12.325,27.474,27.474,27.474h21.132
			c3.218,9.167,11.955,15.76,22.209,15.76c10.252,0,18.99-6.593,22.208-15.76h5.372c6.577,0,11.927,5.351,11.927,11.927V149.617z"/>
	</g>
</g>
<g>
	<g>
		<path d="M105.168,114.008c5.566-4.874,12.846-7.839,20.807-7.839V90.623c-26.011,0-47.174,21.162-47.174,47.174v7.881h15.547
			v-7.882h0.001c0-2.851,0.386-5.612,1.097-8.242h38.773v-15.547H105.168z"/>
	</g>
</g>
<g>
	<g>
		<path d="M441.185,263.988h-31.521c-4.404,0-7.987-3.583-7.987-7.988v-15.76c0-12.976-10.557-23.533-23.534-23.533h-1.432
			c-3.218-9.167-11.955-15.76-22.209-15.76c-10.252,0-18.991,6.593-22.209,15.76H283.58c-12.977,0-23.533,10.557-23.533,23.533
			v31.521c0,12.976,10.557,23.533,23.533,23.533c4.404,0,7.987,3.583,7.987,7.988v23.641c0,10.252,6.593,18.991,15.76,22.208v9.312
			c0,4.405-3.583,7.988-7.987,7.988h-15.76c-4.405,0-7.988-3.583-7.988-7.988v-39.508h7.988v-15.547H89.919
			c-19.283,0-34.971-15.689-34.971-34.971v-20.297H39.401v20.297c0,27.855,22.662,50.518,50.518,50.518h67.686v35.567
			c0,15.15,12.324,27.474,27.474,27.474c6.577,0,11.927,5.351,11.927,11.927v82.742c0,8.75-7.118,15.867-15.867,15.868h-0.01h-7.87
			v15.547h7.881c0.003,0,0.007,0,0.01,0l145.744-0.2c1.306,0.132,2.629,0.2,3.97,0.2v-0.206h0.01l-0.01-7.773v-7.568
			c-0.003,0-0.007,0-0.01,0v-0.205l-3.029,0.004c-11.663-1.498-20.707-11.482-20.707-23.546v-51.221
			c0-6.577,5.351-11.927,11.927-11.927c15.15,0,27.474-12.324,27.474-27.474v-27.687h94.669c12.976,0,23.533-10.557,23.533-23.533
			v-39.401C464.719,274.545,454.162,263.988,441.185,263.988z M354.503,216.492c4.404,0,7.987,3.583,7.987,7.987
			s-3.583,7.987-7.987,7.987s-7.987-3.583-7.987-7.987C346.515,220.075,350.098,216.492,354.503,216.492z M212.553,318.935h23.855
			v11.927c0,6.577-5.351,11.927-11.927,11.927c-6.576,0-11.927-5.351-11.927-11.927V318.935z M330.969,378.143
			c0,6.576-5.351,11.927-11.927,11.927c-15.15,0-27.474,12.325-27.474,27.474v51.221c0,8.843,2.938,17.012,7.887,23.585l-91.2,0.125
			c2.726-4.653,4.297-10.06,4.297-15.831v-82.742c0-15.149-12.325-27.474-27.474-27.474c-6.576,0-11.927-5.351-11.927-11.927
			v-35.567h23.855v11.927c0,15.15,12.325,27.474,27.474,27.474s27.474-12.325,27.474-27.474v-11.927h8.095v39.508
			c0,12.977,10.557,23.534,23.533,23.534h15.76c12.976,0,23.533-10.557,23.533-23.534v-7.988h8.095V378.143z M449.173,326.922
			L449.173,326.922c-0.001,4.404-3.584,7.987-7.988,7.987H315.102c-4.404,0-7.987-3.583-7.987-7.987v-23.641
			c0-12.977-10.557-23.534-23.533-23.534c-4.405,0-7.988-3.583-7.988-7.987v-31.521c0-4.404,3.583-7.987,7.988-7.987h48.714
			c3.218,9.167,11.955,15.76,22.208,15.76c10.253,0,18.991-6.593,22.209-15.76h1.432c4.405,0,7.988,3.583,7.988,7.987V256
			c0,12.977,10.557,23.534,23.533,23.534h31.521c4.404,0,7.987,3.583,7.987,7.987V326.922z"/>
	</g>
</g>
<g>
	<g>
		<path d="M488.466,193.065h-7.88c-4.405,0-7.988-3.583-7.988-7.987v-31.521c0-12.977-10.557-23.534-23.533-23.534h-15.761v15.547
			h15.761c4.404,0,7.987,3.583,7.987,7.988v31.521c0,12.976,10.557,23.533,23.534,23.533h7.88c4.405,0,7.988,3.583,7.988,7.987
			v86.682c0,4.404-3.583,7.987-7.988,7.987h-15.76v15.547h15.76c12.977,0,23.534-10.557,23.534-23.533v-86.682
			C512,203.623,501.443,193.065,488.466,193.065z"/>
	</g>
</g>
<g>
	<g>
		<path d="M102.336,177.305c-12.977,0-23.534,10.557-23.534,23.533c0.001,12.976,10.558,23.533,23.534,23.533
			s23.533-10.557,23.533-23.533C125.869,187.862,115.312,177.305,102.336,177.305z M102.336,208.824
			c-4.404,0-7.988-3.583-7.988-7.987c0.001-4.404,3.584-7.987,7.988-7.987s7.987,3.583,7.987,7.987S106.74,208.824,102.336,208.824z
			"/>
	</g>
</g>
<g>
	<g>
		<path d="M346.622,279.748c-12.977,0-23.533,10.557-23.533,23.534c0,12.976,10.557,23.533,23.533,23.533
			c12.977,0,23.534-10.557,23.534-23.533C370.156,290.305,359.599,279.748,346.622,279.748z M346.622,311.268
			c-4.404,0-7.987-3.583-7.987-7.987c0-4.405,3.583-7.988,7.987-7.988c4.405,0,7.988,3.583,7.988,7.988
			C354.61,307.685,351.027,311.268,346.622,311.268z"/>
	</g>
</g>
<g>
	<g>
		<path d="M441.185,208.826c-12.977,0-23.534,10.557-23.534,23.533s10.557,23.534,23.534,23.534
			c12.976,0,23.533-10.557,23.533-23.534C464.719,219.383,454.162,208.826,441.185,208.826z M441.185,240.347
			c-4.405,0-7.988-3.583-7.988-7.988s3.583-7.987,7.988-7.987c4.404,0,7.987,3.583,7.987,7.987S445.589,240.347,441.185,240.347z"/>
	</g>
</g>
<g>
	<g>
		<path d="M338.742,3.94h-55.161c-17.322,0-31.413,14.092-31.413,31.414h15.547c0-8.75,7.117-15.867,15.867-15.867h55.161
			c8.71,0,15.798,7.056,15.862,15.752h-16.207v15.547h16.213v8.209h15.547v-23.64C370.156,18.032,356.064,3.94,338.742,3.94z"/>
	</g>
</g>
<g>
	<g>
		<rect x="38.866" y="201.069" width="16.583" height="15.547"/>
	</g>
</g>
<g>
	<g>
		<rect x="134.219" y="216.615" width="15.547" height="15.547"/>
	</g>
</g>
<g>
	<g>
		<rect x="149.765" y="232.162" width="46.64" height="15.547"/>
	</g>
</g>
<g>
	<g>
		<rect x="244.081" y="90.17" width="32.13" height="15.547"/>
	</g>
</g>
<g>
	<g>
		<rect x="276.211" y="106.753" width="22.802" height="15.547"/>
	</g>
</g>
<g>
	<g>
		<rect x="370.526" y="129.555" width="23.838" height="15.547"/>
	</g>
</g>
<g>
	<g>
		<rect x="394.364" y="192.777" width="15.547" height="15.547"/>
	</g>
</g>
<g>
	<g>
		<rect x="401.619" y="295.385" width="23.838" height="15.547"/>
	</g>
</g>
</svg>